# xmcd CD database file
#
# Track frame offsets:
#	150
#	17208
#	35181
#	47500
#	66796
#	86165
#	101883
#	120349
#	137910
#	158257
#	175452
#	193771
#	212093
#	231968
#	249970
#	267465
#	289145
#	304852
#
# Disc length: 4383 seconds
#
# Revision: 5
# Processed by: cddbd v1.5.2PL0 Copyright (c) Steve Scherf et al.
# Submitted via: CDex 1.51
#
DISCID=08111d12
DTITLE=Various Artist - SF-333
DYEAR=1900
DGENRE=Data
TTITLE0=jls - Billion Lights
TTITLE1=Gary Barlow - Let Me Go
TTITLE2=Ellie Goulding - How Long Will I Love You
TTITLE3=Eminem - Berzerk (clean)
TTITLE4=Killers The - Shot At The Night
TTITLE5=Lorde - Team
TTITLE6=Avicii Ft Salem Al Fakir - You Make Me
TTITLE7=Michael Buble Ft Bryan Adams - After All
TTITLE8=Jack Jones - Radiate
TTITLE9=Sam Smith - Nivana
TTITLE10=Eliza Doolittle - Let It Rain
TTITLE11=Tinie Tempah Ft John Martin - Children Of The Sun
TTITLE12=Britney Spears - Work Bitch
TTITLE13=Little Mix - Move
TTITLE14=Vamps The - Can We Dance
TTITLE15=Birdy - Wings
TTITLE16=Chvrches - The Mother We Share
TTITLE17=Elton John - Home Again
EXTD=
EXTT0=
EXTT1=
EXTT2=
EXTT3=
EXTT4=
EXTT5=
EXTT6=
EXTT7=
EXTT8=
EXTT9=
EXTT10=
EXTT11=
EXTT12=
EXTT13=
EXTT14=
EXTT15=
EXTT16=
EXTT17=
PLAYORDER=
